<svg width="10" height="18" viewBox="0 0 10 18" fill="none" xmlns="http://www.w3.org/2000/svg">
<path d="M4.99594 12C4.75414 12 4.52238 12.0975 4.3537 12.2706L0.254966 16.469C0.0849467 16.643 0 16.8692 0 17.0951C0 17.3278 0.0904 17.5612 0.270737 17.7369C0.625132 18.083 1.19356 18.0758 1.53944 17.7211L4.99594 14.1811L8.4612 17.7299C8.80707 18.0845 9.37506 18.0904 9.7299 17.7448C10.0847 17.3991 10.0902 16.8315 9.74479 16.4778L5.63905 12.2706C5.46993 12.0975 5.23773 12 4.99594 12Z" fill="white"/>
<path d="M5.00406 6C5.24586 6 5.47762 5.90249 5.6463 5.72944L9.74503 1.53095C9.91505 1.35701 10 1.13085 10 0.904903C10 0.672233 9.9096 0.438827 9.72926 0.263091C9.37487 -0.0830012 8.80644 -0.0757586 8.46057 0.278851L5.00406 3.81889L1.5388 0.270095C1.19293 -0.0845149 0.624945 -0.0904339 0.270102 0.25521C-0.0847402 0.600853 -0.0902153 1.16848 0.255207 1.5222L4.36095 5.72944C4.53007 5.90249 4.76227 6 5.00406 6Z" fill="white"/>
</svg>
