<svg width="20" height="20" viewBox="0 0 20 20" fill="none" xmlns="http://www.w3.org/2000/svg">
<path d="M18.0952 20H12.8571C11.8067 20 10.9524 19.1457 10.9524 18.0952V12.8571C10.9524 11.8067 11.8067 10.9524 12.8571 10.9524H18.0952C19.1457 10.9524 20 11.8067 20 12.8571V18.0952C20 19.1457 19.1457 20 18.0952 20ZM13.0952 18.0952H17.8586C17.99 18.0952 18.0967 17.9886 18.0967 17.8571L18.0952 13.0952C18.0952 12.9638 17.9886 12.8571 17.8571 12.8571H13.0952C12.9638 12.8571 12.8571 12.9638 12.8571 13.0952V17.8571C12.8571 17.9886 12.9638 18.0952 13.0952 18.0952ZM7.14286 20H1.90476C0.854286 20 0 19.1457 0 18.0952V12.8571C0 11.8067 0.854286 10.9524 1.90476 10.9524H7.14286C8.19333 10.9524 9.04762 11.8067 9.04762 12.8571V18.0952C9.04762 19.1457 8.19333 20 7.14286 20ZM2.14286 18.0952H6.90619C7.03762 18.0952 7.14429 17.9886 7.14429 17.8571L7.14286 13.0952C7.14286 12.9638 7.03619 12.8571 6.90476 12.8571H2.14286C2.01143 12.8571 1.90476 12.9638 1.90476 13.0952V17.8571C1.90476 17.9886 2.01143 18.0952 2.14286 18.0952ZM18.0952 9.04762H12.8571C11.8067 9.04762 10.9524 8.19333 10.9524 7.14286V1.90476C10.9524 0.854286 11.8067 0 12.8571 0H18.0952C19.1457 0 20 0.854286 20 1.90476V7.14286C20 8.19333 19.1457 9.04762 18.0952 9.04762ZM13.0952 7.14286H17.8586C17.99 7.14286 18.0967 7.03619 18.0967 6.90476L18.0952 2.14286C18.0952 2.01143 17.9886 1.90476 17.8571 1.90476H13.0952C12.9638 1.90476 12.8571 2.01143 12.8571 2.14286V6.90476C12.8571 7.03619 12.9638 7.14286 13.0952 7.14286ZM7.14286 9.04762H1.90476C0.854286 9.04762 0 8.19333 0 7.14286V1.90476C0 0.854286 0.854286 0 1.90476 0H7.14286C8.19333 0 9.04762 0.854286 9.04762 1.90476V7.14286C9.04762 8.19333 8.19333 9.04762 7.14286 9.04762ZM2.14286 7.14286H6.90619C7.03762 7.14286 7.14429 7.03619 7.14429 6.90476L7.14286 2.14286C7.14286 2.01143 7.03619 1.90476 6.90476 1.90476H2.14286C2.01143 1.90476 1.90476 2.01143 1.90476 2.14286V6.90476C1.90476 7.03619 2.01143 7.14286 2.14286 7.14286Z" fill="white"/>
</svg>
