<svg width="40" height="40" viewBox="0 0 40 40" fill="none" xmlns="http://www.w3.org/2000/svg">
<rect x="1" y="1" width="38" height="38" rx="9" fill="url(#paint0_linear_1_15)" stroke="#5875DC" stroke-width="2"/>
<path d="M28.0952 30H22.8571C21.8067 30 20.9524 29.1457 20.9524 28.0952V22.8571C20.9524 21.8067 21.8067 20.9524 22.8571 20.9524H28.0952C29.1457 20.9524 30 21.8067 30 22.8571V28.0952C30 29.1457 29.1457 30 28.0952 30ZM23.0952 28.0952H27.8586C27.99 28.0952 28.0967 27.9886 28.0967 27.8571L28.0952 23.0952C28.0952 22.9638 27.9886 22.8571 27.8571 22.8571H23.0952C22.9638 22.8571 22.8571 22.9638 22.8571 23.0952V27.8571C22.8571 27.9886 22.9638 28.0952 23.0952 28.0952ZM17.1429 30H11.9048C10.8543 30 10 29.1457 10 28.0952V22.8571C10 21.8067 10.8543 20.9524 11.9048 20.9524H17.1429C18.1933 20.9524 19.0476 21.8067 19.0476 22.8571V28.0952C19.0476 29.1457 18.1933 30 17.1429 30ZM12.1429 28.0952H16.9062C17.0376 28.0952 17.1443 27.9886 17.1443 27.8571L17.1429 23.0952C17.1429 22.9638 17.0362 22.8571 16.9048 22.8571H12.1429C12.0114 22.8571 11.9048 22.9638 11.9048 23.0952V27.8571C11.9048 27.9886 12.0114 28.0952 12.1429 28.0952ZM28.0952 19.0476H22.8571C21.8067 19.0476 20.9524 18.1933 20.9524 17.1429V11.9048C20.9524 10.8543 21.8067 10 22.8571 10H28.0952C29.1457 10 30 10.8543 30 11.9048V17.1429C30 18.1933 29.1457 19.0476 28.0952 19.0476ZM23.0952 17.1429H27.8586C27.99 17.1429 28.0967 17.0362 28.0967 16.9048L28.0952 12.1429C28.0952 12.0114 27.9886 11.9048 27.8571 11.9048H23.0952C22.9638 11.9048 22.8571 12.0114 22.8571 12.1429V16.9048C22.8571 17.0362 22.9638 17.1429 23.0952 17.1429ZM17.1429 19.0476H11.9048C10.8543 19.0476 10 18.1933 10 17.1429V11.9048C10 10.8543 10.8543 10 11.9048 10H17.1429C18.1933 10 19.0476 10.8543 19.0476 11.9048V17.1429C19.0476 18.1933 18.1933 19.0476 17.1429 19.0476ZM12.1429 17.1429H16.9062C17.0376 17.1429 17.1443 17.0362 17.1443 16.9048L17.1429 12.1429C17.1429 12.0114 17.0362 11.9048 16.9048 11.9048H12.1429C12.0114 11.9048 11.9048 12.0114 11.9048 12.1429V16.9048C11.9048 17.0362 12.0114 17.1429 12.1429 17.1429Z" fill="white"/>
<defs>
<linearGradient id="paint0_linear_1_15" x1="0" y1="0" x2="40" y2="40" gradientUnits="userSpaceOnUse">
<stop stop-color="#1C48E7"/>
<stop offset="1" stop-color="#0E2A8C"/>
</linearGradient>
</defs>
</svg>
