<svg width="20" height="20" viewBox="0 0 20 20" fill="none" xmlns="http://www.w3.org/2000/svg">
<path d="M4.78261 0C3.34174 0 2.17391 1.22091 2.17391 2.72727V11.8182H0.869565C0.389565 11.8182 0 12.2255 0 12.7273C0 13.2291 0.389565 13.6364 0.869565 13.6364H19.1304C19.6104 13.6364 20 13.2291 20 12.7273C20 12.2255 19.6104 11.8182 19.1304 11.8182H17.8261V8.48011C17.8261 7.75648 17.551 7.06321 17.0618 6.55185L11.5591 0.799005C11.0695 0.287642 10.4064 0 9.71467 0H4.78261ZM4.78261 1.81818H9.13043V6.36364C9.13043 7.87 10.2983 9.09091 11.7391 9.09091H16.087V11.8182H3.91304V2.72727C3.91304 2.225 4.30217 1.81818 4.78261 1.81818ZM10.8696 2.64915L15.2921 7.27273H11.7391C11.2587 7.27273 10.8696 6.86591 10.8696 6.36364V2.64915ZM2.17391 15.4545V17.2727C2.17391 18.7791 3.34174 20 4.78261 20H15.2174C16.6583 20 17.8261 18.7791 17.8261 17.2727V15.4545H16.087V17.2727C16.087 17.775 15.6978 18.1818 15.2174 18.1818H4.78261C4.30217 18.1818 3.91304 17.775 3.91304 17.2727V15.4545H2.17391Z" fill="white"/>
</svg>
