<svg width="40" height="40" viewBox="0 0 40 40" fill="none" xmlns="http://www.w3.org/2000/svg">
<rect x="1" y="1" width="38" height="38" rx="7" fill="url(#paint0_linear_7_523)" stroke="url(#paint1_linear_7_523)" stroke-width="2"/>
<path d="M14.7826 10C13.3417 10 12.1739 11.2209 12.1739 12.7273V21.8182H10.8696C10.3896 21.8182 10 22.2255 10 22.7273C10 23.2291 10.3896 23.6364 10.8696 23.6364H29.1304C29.6104 23.6364 30 23.2291 30 22.7273C30 22.2255 29.6104 21.8182 29.1304 21.8182H27.8261V18.4801C27.8261 17.7565 27.551 17.0632 27.0618 16.5518L21.5591 10.799C21.0695 10.2876 20.4064 10 19.7147 10H14.7826ZM14.7826 11.8182H19.1304V16.3636C19.1304 17.87 20.2983 19.0909 21.7391 19.0909H26.087V21.8182H13.913V12.7273C13.913 12.225 14.3022 11.8182 14.7826 11.8182ZM20.8696 12.6491L25.2921 17.2727H21.7391C21.2587 17.2727 20.8696 16.8659 20.8696 16.3636V12.6491ZM12.1739 25.4545V27.2727C12.1739 28.7791 13.3417 30 14.7826 30H25.2174C26.6583 30 27.8261 28.7791 27.8261 27.2727V25.4545H26.087V27.2727C26.087 27.775 25.6978 28.1818 25.2174 28.1818H14.7826C14.3022 28.1818 13.913 27.775 13.913 27.2727V25.4545H12.1739Z" fill="white"/>
<defs>
<linearGradient id="paint0_linear_7_523" x1="0" y1="0" x2="40" y2="40" gradientUnits="userSpaceOnUse">
<stop stop-color="#1C48E7"/>
<stop offset="1" stop-color="#0E2A8C"/>
</linearGradient>
<linearGradient id="paint1_linear_7_523" x1="0" y1="0" x2="40" y2="40" gradientUnits="userSpaceOnUse">
<stop/>
<stop offset="0.0001" stop-color="#1A41CE"/>
<stop offset="1" stop-color="#1131A6"/>
</linearGradient>
</defs>
</svg>
