<svg width="10" height="18" viewBox="0 0 10 18" fill="none" xmlns="http://www.w3.org/2000/svg">
<path d="M5.00406 18C5.24586 18 5.47762 17.9025 5.6463 17.7294L9.74503 13.531C9.91505 13.357 10 13.1308 10 12.9049C10 12.6722 9.9096 12.4388 9.72926 12.2631C9.37487 11.917 8.80644 11.9242 8.46056 12.2789L5.00406 15.8189L1.5388 12.2701C1.19293 11.9155 0.624945 11.9096 0.270102 12.2552C-0.0847411 12.6009 -0.0902153 13.1685 0.255207 13.5222L4.36095 17.7294C4.53007 17.9025 4.76227 18 5.00406 18Z" fill="white"/>
<path d="M4.99594 0C4.75414 0 4.52238 0.0975134 4.3537 0.270559L0.254966 4.46905C0.0849467 4.64299 0 4.86915 0 5.0951C0 5.32777 0.0904 5.56117 0.270737 5.73691C0.625132 6.083 1.19356 6.07576 1.53944 5.72115L4.99594 2.18111L8.4612 5.7299C8.80707 6.08451 9.37506 6.09043 9.7299 5.74479C10.0847 5.39915 10.0902 4.83151 9.74479 4.4778L5.63905 0.270559C5.46993 0.0975134 5.23773 0 4.99594 0Z" fill="white"/>
</svg>
