<svg width="40" height="40" viewBox="0 0 40 40" fill="none" xmlns="http://www.w3.org/2000/svg">
<rect x="1" y="1" width="38" height="38" rx="9" fill="#1C48E7" stroke="#ECF0FF" stroke-width="2"/>
<path d="M10.9524 10C10.4267 10 10 10.3813 10 10.8511V12.9787C10 13.1626 10.0669 13.3418 10.1907 13.489L17.1429 21.7736V27.4468C17.1429 27.7689 17.3469 28.0639 17.6693 28.2081L21.4788 29.9102C21.6136 29.9702 21.759 30 21.9048 30C22.0786 30 22.2527 29.9575 22.4061 29.8728C22.6865 29.7179 22.8571 29.4438 22.8571 29.1489V21.7736L29.8093 13.489C29.9327 13.3418 30 13.163 30 12.9787V10.8511C30 10.3813 29.5733 10 29.0476 10H10.9524ZM11.9048 11.7021H28.0952V12.6945L21.143 20.9791C21.1204 21.0061 21.1014 21.0348 21.0826 21.0638H18.9174C18.8986 21.0348 18.8797 21.0061 18.857 20.9791L11.9048 12.6945V11.7021ZM19.0476 22.766H20.9524V27.7718L19.0476 26.9207V22.766Z" fill="white"/>
</svg>
