<?xml version="1.0" encoding="UTF-8" standalone="no" ?>
<!DOCTYPE svg PUBLIC "-//W3C//DTD SVG 1.1//EN" "http://www.w3.org/Graphics/SVG/1.1/DTD/svg11.dtd">
<svg xmlns="http://www.w3.org/2000/svg" xmlns:xlink="http://www.w3.org/1999/xlink" version="1.1" width="1080" height="1080" viewBox="0 0 1080 1080" xml:space="preserve">
<desc>Created with Fabric.js 5.2.4</desc>
<defs>
</defs>
<rect x="0" y="0" width="100%" height="100%" fill="transparent"></rect>
<g transform="matrix(1 0 0 1 540 540)" id="f72506be-c6fd-4fa3-b712-827732a56b6f"  >
</g>
<g transform="matrix(1 0 0 1 540 540)" id="46cc0f70-98f7-4a8a-877f-fae4929dbfb3"  >
<rect style="stroke: none; stroke-width: 1; stroke-dasharray: none; stroke-linecap: butt; stroke-dashoffset: 0; stroke-linejoin: miter; stroke-miterlimit: 4; fill: rgb(255,255,255); fill-rule: nonzero; opacity: 1; visibility: hidden;" vector-effect="non-scaling-stroke"  x="-540" y="-540" rx="0" ry="0" width="1080" height="1080" />
</g>
<g transform="matrix(13.92 0 0 13.92 540 540)"  >
<path style="stroke: none; stroke-width: 1; stroke-dasharray: none; stroke-linecap: butt; stroke-dashoffset: 0; stroke-linejoin: miter; stroke-miterlimit: 4; fill: rgb(28,72,231); fill-rule: nonzero; opacity: 1;" vector-effect="non-scaling-stroke"  transform=" translate(-48.66, -49.5)" d="M 84.6 53.247 C 84.666 53.158 84.729 53.066 84.78899999999999 52.975 C 84.84499999999998 52.89 84.89799999999998 52.805 84.94999999999999 52.719 C 85.00399999999999 52.627 85.05399999999999 52.534 85.10399999999998 52.441 C 85.15199999999999 52.349000000000004 85.19899999999998 52.256 85.24199999999999 52.163000000000004 C 85.285 52.071000000000005 85.32499999999999 51.979000000000006 85.362 51.886 C 85.402 51.787000000000006 85.44 51.689 85.475 51.589000000000006 C 85.50699999999999 51.496 85.53699999999999 51.403000000000006 85.565 51.31 C 85.595 51.207 85.624 51.105000000000004 85.649 51.001000000000005 C 85.671 50.906000000000006 85.69200000000001 50.812000000000005 85.711 50.717000000000006 C 85.731 50.61300000000001 85.749 50.50900000000001 85.765 50.404 C 85.779 50.307 85.789 50.211000000000006 85.799 50.114000000000004 C 85.80900000000001 50.010000000000005 85.81700000000001 49.906000000000006 85.82100000000001 49.80200000000001 C 85.82600000000001 49.70300000000001 85.82800000000002 49.604000000000006 85.82800000000002 49.504000000000005 C 85.82800000000002 49.40200000000001 85.82600000000002 49.29900000000001 85.82100000000001 49.197 C 85.81600000000002 49.096000000000004 85.808 48.995000000000005 85.799 48.895 C 85.79 48.795 85.778 48.694 85.76400000000001 48.593 C 85.74900000000001 48.493 85.73200000000001 48.393 85.712 48.293000000000006 C 85.692 48.19300000000001 85.672 48.093 85.64800000000001 47.99400000000001 C 85.62500000000001 47.89600000000001 85.59700000000001 47.800000000000004 85.56900000000002 47.70300000000001 C 85.53900000000002 47.60200000000001 85.50700000000002 47.50200000000001 85.47300000000001 47.40300000000001 C 85.44100000000002 47.311000000000014 85.40600000000002 47.22000000000001 85.36900000000001 47.13000000000001 C 85.32800000000002 47.02700000000001 85.28500000000001 46.92600000000001 85.23800000000001 46.82500000000001 C 85.19900000000001 46.74100000000001 85.15700000000001 46.65800000000001 85.11400000000002 46.57600000000001 C 85.05900000000001 46.47200000000001 85.00300000000001 46.36900000000001 84.94200000000002 46.26700000000001 C 84.89700000000002 46.19200000000001 84.85000000000002 46.11800000000001 84.80200000000002 46.04400000000001 C 84.73400000000002 45.94000000000001 84.66200000000002 45.83700000000001 84.58800000000002 45.73600000000001 C 84.53700000000002 45.66800000000001 84.48400000000002 45.60100000000001 84.43100000000003 45.53400000000001 C 84.35000000000002 45.433000000000014 84.26700000000002 45.33600000000001 84.17900000000003 45.240000000000016 C 84.15100000000002 45.20900000000002 84.12700000000002 45.176000000000016 84.09800000000003 45.14500000000002 L 63.008000000000024 22.881000000000018 C 60.602000000000025 20.342000000000017 56.593000000000025 20.23400000000002 54.053000000000026 22.639000000000017 C 51.514000000000024 25.045000000000016 51.407000000000025 29.054000000000016 53.812000000000026 31.593000000000018 L 64.77600000000002 43.16600000000002 L 17.834 43.16600000000002 C 14.335999999999999 43.16600000000002 11.501 46.00100000000002 11.501 49.49900000000002 C 11.501 52.997000000000014 14.335999999999999 55.83300000000001 17.834 55.83300000000001 L 64.775 55.83300000000001 L 53.812 67.408 C 51.407 69.947 51.513999999999996 73.955 54.053999999999995 76.361 C 56.592999999999996 78.76700000000001 60.602 78.658 63.007999999999996 76.119 L 84.098 53.855000000000004 C 84.132 53.819 84.161 53.779 84.195 53.743 C 84.27099999999999 53.658 84.344 53.573 84.41499999999999 53.485 C 84.479 53.407 84.54 53.328 84.6 53.247 z" stroke-linecap="round" />
</g>
<g transform="matrix(NaN NaN NaN NaN 0 0)"  >
<g style=""   >
</g>
</g>
</svg>